<?xml version="1.0" encoding="UTF-8" standalone="no"?>
<!DOCTYPE svg PUBLIC "-//W3C//DTD SVG 1.1//EN" "http://www.w3.org/Graphics/SVG/1.1/DTD/svg11.dtd">
<svg xmlns="http://www.w3.org/2000/svg" xmlns:xl="http://www.w3.org/1999/xlink" version="1.1" viewBox="1781.8 -689.8 185.48628 176.27593" width="185.48628pt" height="176.27593pt" xmlns:dc="http://purl.org/dc/elements/1.1/">
  <metadata> Produced by OmniGraffle 7.4.2 
    <dc:date>2017-09-20 06:28:11 +0000</dc:date>
  </metadata>
  <defs>
    <marker orient="auto" overflow="visible" markerUnits="strokeWidth" id="FilledArrow_Marker" viewBox="-1 -4 10 8" markerWidth="10" markerHeight="8" color="black">
      <g>
        <path d="M 8 0 L 0 -3 L 0 3 Z" fill="currentColor" stroke="currentColor" stroke-width="1"/>
      </g>
    </marker>
  </defs>
  <g stroke="none" stroke-opacity="1" stroke-dasharray="none" fill="none" fill-opacity="1">
    <title>Canvas 14</title>
    <g>
      <title>Layer 1</title>
      <line x1="1798" y1="-529.71875" x2="1943.9926" y2="-529.71875" marker-end="url(#FilledArrow_Marker)" stroke="black" stroke-linecap="round" stroke-linejoin="round" stroke-width="1"/>
      <line x1="1798" y1="-529.71875" x2="1798" y2="-666.6" marker-end="url(#FilledArrow_Marker)" stroke="black" stroke-linecap="round" stroke-linejoin="round" stroke-width="1"/>
      <circle cx="1860.6934" cy="-617.5" r="3.5000056" fill="lime"/>
      <circle cx="1860.6934" cy="-617.5" r="3.5000056" stroke="gray" stroke-linecap="round" stroke-linejoin="round" stroke-width="0"/>
      <circle cx="1877.6934" cy="-623" r="3.5000056" fill="lime"/>
      <circle cx="1877.6934" cy="-623" r="3.5000056" stroke="gray" stroke-linecap="round" stroke-linejoin="round" stroke-width="0"/>
      <circle cx="1895.1934" cy="-617.5" r="3.5000056" fill="lime"/>
      <circle cx="1895.1934" cy="-617.5" r="3.5000056" stroke="gray" stroke-linecap="round" stroke-linejoin="round" stroke-width="0"/>
      <circle cx="1881.1934" cy="-604" r="3.5000056" fill="lime"/>
      <circle cx="1881.1934" cy="-604" r="3.5000056" stroke="gray" stroke-linecap="round" stroke-linejoin="round" stroke-width="0"/>
      <circle cx="1855.1934" cy="-599.5" r="3.5000056" fill="lime"/>
      <circle cx="1855.1934" cy="-599.5" r="3.5000056" stroke="gray" stroke-linecap="round" stroke-linejoin="round" stroke-width="0"/>
      <circle cx="1868.1934" cy="-604" r="3.5000056" fill="lime"/>
      <circle cx="1868.1934" cy="-604" r="3.5000056" stroke="gray" stroke-linecap="round" stroke-linejoin="round" stroke-width="0"/>
      <circle cx="1864.6934" cy="-587" r="3.5000056" fill="lime"/>
      <circle cx="1864.6934" cy="-587" r="3.5000056" stroke="gray" stroke-linecap="round" stroke-linejoin="round" stroke-width="0"/>
      <circle cx="1881.1934" cy="-587" r="3.5000056" fill="lime"/>
      <circle cx="1881.1934" cy="-587" r="3.5000056" stroke="gray" stroke-linecap="round" stroke-linejoin="round" stroke-width="0"/>
      <circle cx="1895.1934" cy="-595.5" r="3.5000056" fill="lime"/>
      <circle cx="1895.1934" cy="-595.5" r="3.5000056" stroke="gray" stroke-linecap="round" stroke-linejoin="round" stroke-width="0"/>
      <circle cx="1890.1367" cy="-568.1094" r="3.5000056" fill="lime"/>
      <circle cx="1890.1367" cy="-568.1094" r="3.5000056" stroke="gray" stroke-linecap="round" stroke-linejoin="round" stroke-width="0"/>
      <circle cx="1908.5" cy="-582.5" r="3.5000056" fill="lime"/>
      <circle cx="1908.5" cy="-582.5" r="3.5000056" stroke="gray" stroke-linecap="round" stroke-linejoin="round" stroke-width="0"/>
      <circle cx="1918.5" cy="-604" r="3.5000056" fill="lime"/>
      <circle cx="1918.5" cy="-604" r="3.5000056" stroke="gray" stroke-linecap="round" stroke-linejoin="round" stroke-width="0"/>
      <circle cx="1912.6934" cy="-626.5" r="3.5000056" fill="lime"/>
      <circle cx="1912.6934" cy="-626.5" r="3.5000056" stroke="gray" stroke-linecap="round" stroke-linejoin="round" stroke-width="0"/>
      <circle cx="1885.1934" cy="-637.5" r="3.5000056" fill="lime"/>
      <circle cx="1885.1934" cy="-637.5" r="3.5000056" stroke="gray" stroke-linecap="round" stroke-linejoin="round" stroke-width="0"/>
      <circle cx="1855.1934" cy="-635.5" r="3.5000056" fill="lime"/>
      <circle cx="1855.1934" cy="-635.5" r="3.5000056" stroke="gray" stroke-linecap="round" stroke-linejoin="round" stroke-width="0"/>
      <circle cx="1839.6934" cy="-617.5" r="3.5000056" fill="lime"/>
      <circle cx="1839.6934" cy="-617.5" r="3.5000056" stroke="gray" stroke-linecap="round" stroke-linejoin="round" stroke-width="0"/>
      <circle cx="1833.1934" cy="-595.5" r="3.5000056" fill="lime"/>
      <circle cx="1833.1934" cy="-595.5" r="3.5000056" stroke="gray" stroke-linecap="round" stroke-linejoin="round" stroke-width="0"/>
      <circle cx="1844.6934" cy="-577" r="3.5000056" fill="lime"/>
      <circle cx="1844.6934" cy="-577" r="3.5000056" stroke="gray" stroke-linecap="round" stroke-linejoin="round" stroke-width="0"/>
      <circle cx="1868.1934" cy="-570" r="3.5000056" fill="lime"/>
      <circle cx="1868.1934" cy="-570" r="3.5000056" stroke="gray" stroke-linecap="round" stroke-linejoin="round" stroke-width="0"/>
      <circle cx="1940" cy="-563" r="3.5000056" fill="red"/>
      <circle cx="1940" cy="-563" r="3.5000056" stroke="gray" stroke-linecap="round" stroke-linejoin="round" stroke-width="0"/>
      <ellipse cx="1877.7233" cy="-601.7767" rx="50.25008" ry="40.750065" stroke="#00fb92" stroke-linecap="round" stroke-linejoin="round" stroke-width="1"/>
    </g>
  </g>
</svg>
