<?xml version="1.0" encoding="UTF-8" standalone="no"?>
<!DOCTYPE svg PUBLIC "-//W3C//DTD SVG 1.1//EN" "http://www.w3.org/Graphics/SVG/1.1/DTD/svg11.dtd">
<svg xmlns="http://www.w3.org/2000/svg" xmlns:xl="http://www.w3.org/1999/xlink" version="1.1" viewBox="1478 -621 400 206.5" width="400pt" height="206.5pt" xmlns:dc="http://purl.org/dc/elements/1.1/">
  <metadata> Produced by OmniGraffle 7.5 
    <dc:date>2018-02-27 04:24:09 +0000</dc:date>
  </metadata>
  <defs/>
  <g stroke="none" stroke-opacity="1" stroke-dasharray="none" fill="none" fill-opacity="1">
    <title>Canvas 19</title>
    <g>
      <title>Layer 1</title>
      <path d="M 1819.0676 -590.40514 C 1896.9776 -550.2788 1896.9776 -485.2212 1819.0676 -445.09486 C 1741.1581 -404.9683 1614.8419 -404.9683 1536.9324 -445.09486 C 1459.0224 -485.2212 1459.0224 -550.2788 1536.9324 -590.40514 C 1614.8419 -630.5317 1741.1581 -630.5317 1819.0676 -590.40514" fill="white"/>
      <path d="M 1819.0676 -590.40514 C 1896.9776 -550.2788 1896.9776 -485.2212 1819.0676 -445.09486 C 1741.1581 -404.9683 1614.8419 -404.9683 1536.9324 -445.09486 C 1459.0224 -485.2212 1459.0224 -550.2788 1536.9324 -590.40514 C 1614.8419 -630.5317 1741.1581 -630.5317 1819.0676 -590.40514" stroke="black" stroke-linecap="round" stroke-linejoin="round" stroke-width="1"/>
      <ellipse cx="1678" cy="-518.75" rx="172.25028" ry="72.000115" fill="white"/>
      <ellipse cx="1678" cy="-518.75" rx="172.25028" ry="72.000115" stroke="black" stroke-linecap="round" stroke-linejoin="round" stroke-width="1"/>
      <ellipse cx="1678" cy="-517.75" rx="143.75023" ry="44.25007" fill="white"/>
      <ellipse cx="1678" cy="-517.75" rx="143.75023" ry="44.25007" stroke="black" stroke-linecap="round" stroke-linejoin="round" stroke-width="1"/>
      <ellipse cx="1678" cy="-517.75" rx="106.50017" ry="20.500033" fill="white"/>
      <ellipse cx="1678" cy="-517.75" rx="106.50017" ry="20.500033" stroke="black" stroke-linecap="round" stroke-linejoin="round" stroke-width="1"/>
      <ellipse cx="1678" cy="-517.75" rx="52.500084" ry="8.000013" fill="white"/>
      <ellipse cx="1678" cy="-517.75" rx="52.500084" ry="8.000013" stroke="black" stroke-linecap="round" stroke-linejoin="round" stroke-width="1"/>
      <path d="M 1490 -491.5664 L 1509.4766 -552 L 1518.5 -488.5 L 1533.5 -551.5 L 1541.25 -485.5 L 1557.5 -547.5 L 1562.5 -487.5 L 1580.5 -544.5 L 1590.5 -490.5 L 1601.5 -536.5 L 1612.5 -498.5 L 1621.25 -535.5 L 1629.25 -498.5 L 1637.25 -529.5 L 1642.25 -498.5 L 1651.25 -524.5 L 1656.25 -501.5 L 1663.25 -519.5 L 1667.25 -500.5 L 1673.25 -513.5 L 1673.25 -513.5" stroke="#0432ff" stroke-linecap="round" stroke-linejoin="round" stroke-width="2"/>
      <path d="M 1489.5 -491 L 1505.75 -518.5 L 1525 -501.5 L 1549.3628 -516.4533" stroke="#ff2f92" stroke-linecap="round" stroke-linejoin="round" stroke-width="2"/>
      <path d="M 1626.8048 -509.80914 L 1648 -518.5 L 1673.25 -513.46875 L 1673.25 -513.5" stroke="#ff2f92" stroke-linecap="round" stroke-linejoin="round" stroke-width="2"/>
      <path d="M 1549.427 -516.69856 L 1577 -501.5 L 1601 -515.5 L 1626.9053 -509.3444" stroke="#ff2f92" stroke-linecap="round" stroke-linejoin="round" stroke-width="2"/>
    </g>
  </g>
</svg>
